<?xml version="1.0" standalone="no"?>
<!DOCTYPE svg PUBLIC "-//W3C//DTD SVG 20010904//EN"
 "http://www.w3.org/TR/2001/REC-SVG-20010904/DTD/svg10.dtd">
<svg version="1.0" xmlns="http://www.w3.org/2000/svg"
 width="427.000000pt" height="427.000000pt" viewBox="0 0 427.000000 427.000000"
 preserveAspectRatio="xMidYMid meet">
<metadata>
Created by potrace 1.14, written by Peter Selinger 2001-2017
</metadata>
<g transform="translate(0.000000,427.000000) scale(0.100000,-0.100000)"
fill="#000000" stroke="none">
<path d="M2119 3626 c-2 -2 -35 -7 -74 -10 -361 -34 -700 -160 -965 -360 -184
-138 -337 -302 -433 -462 -74 -123 -147 -311 -162 -415 -3 -24 -8 -51 -10 -59
-3 -12 -17 -154 -17 -180 -2 -59 5 -91 24 -115 14 -18 24 -46 26 -75 l3 -47
-74 -5 c-131 -8 -226 -69 -275 -176 -64 -139 -6 -331 127 -424 l24 -17 -29
-25 c-43 -39 -125 -76 -193 -89 -34 -6 -61 -15 -61 -18 0 -4 33 -18 73 -32 39
-14 151 -53 247 -87 293 -104 574 -195 805 -263 121 -36 265 -83 319 -106 99
-41 241 -86 311 -97 21 -3 47 -8 59 -10 90 -19 358 -25 492 -12 100 11 282 50
349 77 11 5 56 23 100 41 97 39 178 69 202 73 166 32 859 258 1193 388 l85 33
-49 7 c-71 11 -154 45 -210 85 l-48 36 32 19 c46 28 95 85 124 145 66 134 51
267 -41 365 -61 66 -126 92 -230 93 -46 1 -83 5 -83 9 0 5 10 47 21 95 18 73
20 102 15 196 -4 60 -9 112 -11 115 -1 3 -6 24 -9 46 -10 59 -36 155 -53 195
-8 19 -19 44 -23 55 -87 222 -240 417 -475 607 -55 45 -106 87 -113 95 -24 24
-154 96 -242 133 -179 77 -337 123 -500 146 -19 2 -44 6 -55 9 -11 2 -56 7
-100 10 -44 4 -83 9 -86 11 -3 2 -8 2 -10 0z m1810 -1846 c157 -45 160 -288 5
-379 -38 -23 -43 -19 -68 49 -20 53 -76 322 -69 333 6 10 92 9 132 -3z m-3455
-9 c4 -5 -3 -47 -14 -93 -10 -45 -21 -94 -24 -108 -2 -14 -16 -62 -31 -108
l-26 -82 -28 14 c-85 44 -137 179 -103 267 15 39 62 90 97 105 34 15 121 18
129 5z"/>
</g>
</svg>
